# xmcd
#
# Track frame offsets: 
#        150
#        19595
#        39072
#        69225
#        85525
#        106222
#        130535
#        150677
#
# Disc length: 2210 seconds
#
# Revision: 0
# Processed by: cddbd v1.4PL0 Copyright (c) Steve Scherf et al.
# Submitted via: ExactAudioCopy v0.90b4
#
DISCID=4908a008
DTITLE=Jay McShann - Vine Street Boogie
DYEAR=1974
DGENRE=Blues
TTITLE0=My Chile
TTITLE1=Hootie Blues
TTITLE2=Satin Doll
TTITLE3=I'm Beginning To See The Light
TTITLE4=Vine Street Boogie
TTITLE5=Confessin' The Blues
TTITLE6=Yardbird Waltz
TTITLE7=Hootie's Ignorant Oil
EXTD=
EXTT0=
EXTT1=
EXTT2=
EXTT3=
EXTT4=
EXTT5=
EXTT6=
EXTT7=
PLAYORDER=
